<?xml version="1.0" encoding="UTF-8"?>
<svg version="1.1" xmlns="http://www.w3.org/2000/svg" width="438" height="421">
<path d="M0 0 C0.71494629 0.35384766 1.42989258 0.70769531 2.16650391 1.07226562 C13.88640915 6.93912368 24.8088355 13.75000969 35 22 C35.84046875 22.65484375 36.6809375 23.3096875 37.546875 23.984375 C50.70489978 34.4043137 63.06763254 46.70821206 72 61 C72.49757813 61.763125 72.99515625 62.52625 73.5078125 63.3125 C75.3720374 66.18825501 77.18796207 69.09110475 79 72 C79.62003906 72.96035156 80.24007813 73.92070313 80.87890625 74.91015625 C93.14736799 94.9114666 98.89731002 116.93420558 102 140 C102.10908691 140.76006348 102.21817383 141.52012695 102.33056641 142.30322266 C104.79270804 161.2437829 103.6374556 181.31286025 100 200 C99.85014648 200.79857422 99.70029297 201.59714844 99.54589844 202.41992188 C97.642604 212.38494118 95.01983015 221.65389491 91 231 C90.46803866 232.28746673 89.93682431 233.57524229 89.40625 234.86328125 C82.07815144 252.39656094 72.147064 267.81176798 60 282.375 C59.53102295 282.940979 59.0620459 283.50695801 58.57885742 284.09008789 C57.43243151 285.43450027 56.22147503 286.72338895 55 288 C54.34 288 53.68 288 53 288 C52.76410156 288.56847656 52.52820313 289.13695312 52.28515625 289.72265625 C43.42981745 305.41463959 20.38853753 317.05716455 5 325 C3.91976563 325.57363281 2.83953125 326.14726562 1.7265625 326.73828125 C-11.1086137 333.39674397 -23.67608995 337.78802353 -37.82617188 340.56640625 C-39.88540327 340.97714243 -41.9346425 341.41950389 -43.984375 341.875 C-52.33872144 343.67759757 -60.45926642 344.72286705 -69 345 C-69.80324707 345.02723145 -70.60649414 345.05446289 -71.43408203 345.08251953 C-84.92377863 345.48037925 -97.7594024 344.61161855 -111 342 C-111.8544873 341.83371094 -112.70897461 341.66742188 -113.58935547 341.49609375 C-137.71629415 336.65006552 -161.29193218 326.8928331 -181 312 C-181.85207031 311.41089844 -182.70414062 310.82179688 -183.58203125 310.21484375 C-190.81993931 305.17212383 -197.2152404 299.4543981 -203.57080078 293.36621094 C-204.77511783 292.21497106 -205.99343398 291.07840163 -207.21484375 289.9453125 C-213.54038053 283.91729586 -218.75324992 276.95993252 -224 270 C-224.64066406 269.154375 -225.28132813 268.30875 -225.94140625 267.4375 C-233.35466178 257.25502372 -239.61030961 246.13039366 -243.83203125 234.2578125 C-244.4868814 232.43124051 -245.16344784 230.610961 -245.91503906 228.82202148 C-248.66520701 222.27565359 -250.50835272 215.71960411 -252.125 208.8125 C-252.37636719 207.79091797 -252.62773437 206.76933594 -252.88671875 205.71679688 C-256.18481258 191.85962252 -257.41179862 178.19141514 -257.375 164 C-257.37478851 163.23953369 -257.37457703 162.47906738 -257.37435913 161.69555664 C-257.33780896 148.44603259 -256.03569992 135.92261249 -253 123 C-252.65731985 121.39588293 -252.31486734 119.79171721 -251.97265625 118.1875 C-245.50873729 89.64394567 -230.00458228 62.8405741 -210.3125 41.375 C-209.80750977 40.82448975 -209.30251953 40.27397949 -208.78222656 39.70678711 C-207.56735058 38.42606702 -206.28908974 37.20599139 -205 36 C-204.34 36 -203.68 36 -203 36 C-202.67 35.01 -202.34 34.02 -202 33 C-153.44462793 -19.98291359 -62.45461019 -31.193749 0 0 Z " fill="#1B1C1E" transform="translate(312,40)"/>
<path d="M0 0 C0.71494629 0.35384766 1.42989258 0.70769531 2.16650391 1.07226562 C13.88640915 6.93912368 24.8088355 13.75000969 35 22 C35.84046875 22.65484375 36.6809375 23.3096875 37.546875 23.984375 C50.70489978 34.4043137 63.06763254 46.70821206 72 61 C72.49757813 61.763125 72.99515625 62.52625 73.5078125 63.3125 C75.3720374 66.18825501 77.18796207 69.09110475 79 72 C79.62003906 72.96035156 80.24007813 73.92070313 80.87890625 74.91015625 C93.14736799 94.9114666 98.89731002 116.93420558 102 140 C102.10908691 140.76006348 102.21817383 141.52012695 102.33056641 142.30322266 C104.79270804 161.2437829 103.6374556 181.31286025 100 200 C99.85014648 200.79857422 99.70029297 201.59714844 99.54589844 202.41992188 C97.642604 212.38494118 95.01983015 221.65389491 91 231 C90.46803866 232.28746673 89.93682431 233.57524229 89.40625 234.86328125 C82.07815144 252.39656094 72.147064 267.81176798 60 282.375 C59.53102295 282.940979 59.0620459 283.50695801 58.57885742 284.09008789 C57.43243151 285.43450027 56.22147503 286.72338895 55 288 C54.34 288 53.68 288 53 288 C52.76410156 288.56847656 52.52820313 289.13695312 52.28515625 289.72265625 C43.42981745 305.41463959 20.38853753 317.05716455 5 325 C3.91976563 325.57363281 2.83953125 326.14726562 1.7265625 326.73828125 C-11.1086137 333.39674397 -23.67608995 337.78802353 -37.82617188 340.56640625 C-39.88540327 340.97714243 -41.9346425 341.41950389 -43.984375 341.875 C-52.33872144 343.67759757 -60.45926642 344.72286705 -69 345 C-69.80324707 345.02723145 -70.60649414 345.05446289 -71.43408203 345.08251953 C-84.92377863 345.48037925 -97.7594024 344.61161855 -111 342 C-111.8544873 341.83371094 -112.70897461 341.66742188 -113.58935547 341.49609375 C-137.71629415 336.65006552 -161.29193218 326.8928331 -181 312 C-181.85207031 311.41089844 -182.70414062 310.82179688 -183.58203125 310.21484375 C-190.81993931 305.17212383 -197.2152404 299.4543981 -203.57080078 293.36621094 C-204.77511783 292.21497106 -205.99343398 291.07840163 -207.21484375 289.9453125 C-213.54038053 283.91729586 -218.75324992 276.95993252 -224 270 C-224.64066406 269.154375 -225.28132813 268.30875 -225.94140625 267.4375 C-233.35466178 257.25502372 -239.61030961 246.13039366 -243.83203125 234.2578125 C-244.4868814 232.43124051 -245.16344784 230.610961 -245.91503906 228.82202148 C-248.66520701 222.27565359 -250.50835272 215.71960411 -252.125 208.8125 C-252.37636719 207.79091797 -252.62773437 206.76933594 -252.88671875 205.71679688 C-256.18481258 191.85962252 -257.41179862 178.19141514 -257.375 164 C-257.37478851 163.23953369 -257.37457703 162.47906738 -257.37435913 161.69555664 C-257.33780896 148.44603259 -256.03569992 135.92261249 -253 123 C-252.65731985 121.39588293 -252.31486734 119.79171721 -251.97265625 118.1875 C-245.50873729 89.64394567 -230.00458228 62.8405741 -210.3125 41.375 C-209.80750977 40.82448975 -209.30251953 40.27397949 -208.78222656 39.70678711 C-207.56735058 38.42606702 -206.28908974 37.20599139 -205 36 C-204.34 36 -203.68 36 -203 36 C-202.67 35.01 -202.34 34.02 -202 33 C-153.44462793 -19.98291359 -62.45461019 -31.193749 0 0 Z M-172 26 C-172.98484375 26.69867188 -173.9696875 27.39734375 -174.984375 28.1171875 C-211.38041959 54.61275364 -235.32426737 93.84261902 -242.8125 138.1875 C-246.88602609 165.56988049 -244.09496021 192.95132757 -235 219 C-234.69449219 219.94488281 -234.38898438 220.88976562 -234.07421875 221.86328125 C-220.26620812 262.92234368 -187.53453458 295.92639613 -149.55859375 315.2890625 C-144.15560739 317.88676615 -138.65629201 320.02456133 -133 322 C-132.01515625 322.35835938 -131.0303125 322.71671875 -130.015625 323.0859375 C-104.58229652 332.03470122 -74.50140565 333.97209799 -48 329 C-47.22011719 328.8546582 -46.44023437 328.70931641 -45.63671875 328.55957031 C-14.44964337 322.48463844 15.39141002 307.41913253 38 285 C39.01426969 284.03243144 40.02992404 283.06631255 41.046875 282.1015625 C58.08819842 265.75657443 70.21032932 245.81503225 79 224 C79.49242187 222.91074219 79.98484375 221.82148438 80.4921875 220.69921875 C96.18713848 182.1937302 92.94198059 136.96931102 77.69262695 98.93334961 C71.77463787 84.93975285 63.55059782 71.77879572 54 60 C53.51499023 59.39792725 53.02998047 58.79585449 52.53027344 58.17553711 C25.5155467 25.03715412 -13.74214368 2.18661531 -56.54296875 -2.6875 C-57.68378906 -2.790625 -58.82460937 -2.89375 -60 -3 C-60.64662598 -3.07089844 -61.29325195 -3.14179687 -61.95947266 -3.21484375 C-100.23778699 -7.29023748 -140.78495094 3.56951392 -172 26 Z " fill="#082939" transform="translate(312,40)"/>
<path d="M0 0 C24.23348028 -0.99136965 48.70063577 4.28230343 70.76171875 14.16015625 C74.23992976 15.71057247 77.71827892 16.92167465 81.375 18 C106.9696377 26.13888061 134.93439357 53.49502971 149 76 C149.49757813 76.763125 149.99515625 77.52625 150.5078125 78.3125 C152.3720374 81.18825501 154.18796207 84.09110475 156 87 C156.62003906 87.96035156 157.24007812 88.92070313 157.87890625 89.91015625 C170.14736799 109.9114666 175.89731002 131.93420558 179 155 C179.10908691 155.76006348 179.21817383 156.52012695 179.33056641 157.30322266 C181.79270804 176.2437829 180.6374556 196.31286025 177 215 C176.85014648 215.79857422 176.70029297 216.59714844 176.54589844 217.41992188 C174.642604 227.38494118 172.01983015 236.65389491 168 246 C167.46803866 247.28746673 166.93682431 248.57524229 166.40625 249.86328125 C159.07815144 267.39656094 149.147064 282.81176798 137 297.375 C136.53102295 297.940979 136.0620459 298.50695801 135.57885742 299.09008789 C134.43243151 300.43450027 133.22147503 301.72338895 132 303 C131.34 303 130.68 303 130 303 C129.76410156 303.56847656 129.52820313 304.13695312 129.28515625 304.72265625 C124.86737272 312.55112981 115.29869624 318.44861664 108.25 323.875 C107.54157959 324.42212646 106.83315918 324.96925293 106.10327148 325.53295898 C100.62986744 329.68649878 95.12648026 333.38143098 88.625 335.75 C83.85922313 337.58522306 79.28898975 339.73204622 74.6875 341.9375 C51.28724547 353.03716212 26.01147626 359.07881699 0 358 C0 354.04 0 350.08 0 346 C1.42828125 345.90203125 2.8565625 345.8040625 4.328125 345.703125 C45.66812096 342.64261853 85.21047595 328.922513 115 299 C115.928125 298.11957031 116.85625 297.23914063 117.8125 296.33203125 C134.53766268 280.23406217 146.36798371 260.42375074 155 239 C155.49242187 237.91074219 155.98484375 236.82148438 156.4921875 235.69921875 C172.18713848 197.1937302 168.94198059 151.96931102 153.69262695 113.93334961 C147.7751884 99.94105461 139.55275733 86.77570014 130 75 C129.50967285 74.39260986 129.0193457 73.78521973 128.51416016 73.15942383 C101.64413058 40.28133431 62.76049923 18.43555689 20.4375 13.30078125 C13.63345061 12.70542693 6.82227812 12.31385783 0 12 C0 8.04 0 4.08 0 0 Z " fill="#0DACA5" transform="translate(235,25)"/>
<path d="M0 0 C22 0 22 0 26.7890625 4.51171875 C28.30273438 7.46801758 28.30273438 7.46801758 29.625 10.6875 C30.71007454 12.89365382 31.79602929 15.0993749 32.8828125 17.3046875 C33.39618164 18.42456055 33.90955078 19.54443359 34.43847656 20.69824219 C36.82633281 25.74723653 39.66461207 30.50562453 42.5 35.3125 C43.47762108 37.02134727 44.45175324 38.7321967 45.421875 40.4453125 C46.08606445 41.61755371 46.08606445 41.61755371 46.76367188 42.81347656 C47.17166016 43.5350293 47.57964844 44.25658203 48 45 C48.36158203 45.63905273 48.72316406 46.27810547 49.09570312 46.93652344 C54 55.63848161 54 55.63848161 54 58 C56.46966817 55.74961823 57.96740804 53.50648688 59.53125 50.5625 C60.0065918 49.67691406 60.48193359 48.79132813 60.97167969 47.87890625 C61.47602539 46.92886719 61.98037109 45.97882813 62.5 45 C67.72827847 35.27802097 73.16587435 25.7030593 78.73486328 16.17333984 C81.86059461 10.80374117 84.9237181 5.39800409 88 0 C95.59 0 103.18 0 111 0 C111 28.38 111 56.76 111 86 C105.39 86 99.78 86 94 86 C93.67 65.54 93.34 45.08 93 24 C85.22429954 37.98606128 85.22429954 37.98606128 77.5 52 C76.12529843 54.50057944 74.74995025 57.00080243 73.37451172 59.50097656 C72.45116009 61.17973807 71.52831598 62.85877882 70.60595703 64.53808594 C69.26083867 66.98522326 67.91211404 69.43033983 66.5625 71.875 C66.16160156 72.60589844 65.76070313 73.33679688 65.34765625 74.08984375 C64.25116157 76.07168381 63.12985939 78.0370432 62 80 C61.67112793 80.60618164 61.34225586 81.21236328 61.00341797 81.83691406 C60.02734375 83.5078125 60.02734375 83.5078125 58 86 C55.25 86.375 55.25 86.375 53 86 C52.58492187 85.2678125 52.16984375 84.535625 51.7421875 83.78125 C48.4398942 77.97805675 45.11689521 72.18888871 41.73828125 66.4296875 C35.47230421 55.74749733 29.28425315 45.04070752 23.37573242 34.15576172 C22.95783447 33.38635254 22.53993652 32.61694336 22.109375 31.82421875 C21.74811523 31.15479248 21.38685547 30.48536621 21.01464844 29.7956543 C20.08576343 28.15177815 19.04736389 26.57104584 18 25 C17.67 45.13 17.34 65.26 17 86 C11.39 86 5.78 86 0 86 C0 57.62 0 29.24 0 0 Z " fill="#EEEEED" transform="translate(89,159)"/>
<path d="M0 0 C1.11054749 0.03906464 2.22109497 0.07812927 3.36529541 0.11837769 C5.10918549 0.12537186 5.10918549 0.12537186 6.88830566 0.13250732 C9.34284895 0.15194864 11.79730466 0.19544891 14.2510376 0.26144409 C17.98060124 0.35989681 21.70486449 0.38438628 25.43560791 0.39572144 C27.82889241 0.42391379 30.22213162 0.45632995 32.61529541 0.49337769 C34.26897125 0.50946579 34.26897125 0.50946579 35.95605469 0.52587891 C45.47709748 0.81370583 54.75725579 2.77243928 61.83575439 9.56051636 C67.03351363 15.691138 67.89137923 21.84467422 67.75592041 29.67306519 C67.77912354 31.00821167 67.77912354 31.00821167 67.80279541 32.37033081 C67.75854619 39.94247946 65.95918223 45.91769856 61.14263916 51.82931519 C56.5215238 55.83482903 53.48013593 58.23556519 47.25592041 58.23556519 C51.05089143 62.60405272 54.87892759 66.93961773 58.75592041 71.23556519 C61.58136707 74.37012054 64.40096444 77.50905582 67.19342041 80.67306519 C67.73869385 81.29052612 68.28396729 81.90798706 68.84576416 82.54415894 C70.25592041 84.23556519 70.25592041 84.23556519 72.25592041 87.23556519 C53.00367563 89.28625809 53.00367563 89.28625809 47.24810791 86.13693237 C43.95514206 83.26751829 41.6997464 79.71737921 39.42974854 76.01925659 C37.5033134 73.09194064 35.10846328 70.63654489 32.69342041 68.11056519 C30.30019392 65.52970973 28.21035793 63.16722146 26.25592041 60.23556519 C23.34978607 59.72410321 23.34978607 59.72410321 19.93560791 59.72384644 C18.8036499 59.69073364 17.67169189 59.65762085 16.50543213 59.62350464 C15.06184326 59.59860962 13.61825439 59.5737146 12.13092041 59.54806519 C5.26279541 59.39337769 5.26279541 59.39337769 -1.74407959 59.23556519 C-1.74407959 68.47556519 -1.74407959 77.71556519 -1.74407959 87.23556519 C-7.35407959 87.23556519 -12.96407959 87.23556519 -18.74407959 87.23556519 C-18.74407959 72.71556519 -18.74407959 58.19556519 -18.74407959 43.23556519 C-14.31486084 43.18658081 -9.88564209 43.13759644 -5.32220459 43.08712769 C-1.78875064 43.04258512 1.74466561 42.99608973 5.27807617 42.94827271 C9.00698215 42.89834602 12.73585829 42.85185444 16.46490479 42.81369019 C20.05712454 42.77679356 23.64910884 42.73042202 27.24112701 42.67750168 C28.61099362 42.65898093 29.98091065 42.64386438 31.35085297 42.63222122 C33.27080697 42.61531987 35.19063027 42.58515092 37.1104126 42.55441284 C38.20295349 42.54108917 39.29549438 42.5277655 40.42114258 42.51403809 C43.26633871 42.23454175 44.90375209 41.8327047 47.25592041 40.23556519 C50.16602532 35.1428816 51.44972847 30.08412943 50.25592041 24.23556519 C47.72623567 20.953812 46.1786071 19.54312741 42.25592041 18.23556519 C40.30875395 18.11880704 38.35798564 18.05886593 36.40753174 18.03024292 C35.20651321 18.0102977 34.00549469 17.99035248 32.76808167 17.96980286 C31.47113876 17.95309036 30.17419586 17.93637787 28.83795166 17.91915894 C27.49701811 17.89858225 26.15609095 17.87758559 24.81517029 17.85618591 C21.28890152 17.80103892 17.76257493 17.75159724 14.23620605 17.70333862 C10.63660548 17.65306968 7.03708868 17.59741179 3.43756104 17.54220581 C-3.62291311 17.43471447 -10.68346241 17.33324954 -17.74407959 17.23556519 C-14.68059253 7.27541627 -11.20057032 0.13027433 0 0 Z " fill="#949697" transform="translate(314.74407958984375,157.76443481445313)"/>
<path d="M0 0 C1.53125836 0.01121686 3.06253853 0.01974525 4.59382629 0.02572632 C8.58754918 0.04842988 12.5799233 0.1071864 16.57312012 0.1739502 C20.66249352 0.23577746 24.75208892 0.26282678 28.84179688 0.29296875 C36.83915462 0.35695379 44.83542428 0.45910082 52.83203125 0.5859375 C51.73101715 2.50441687 50.62609029 4.42065104 49.51953125 6.3359375 C48.90464844 7.40328125 48.28976562 8.470625 47.65625 9.5703125 C46.75326172 11.06304687 46.75326172 11.06304687 45.83203125 12.5859375 C45.37049652 13.3652211 44.90896179 14.1445047 44.43344116 14.94740295 C42.83203125 16.5859375 42.83203125 16.5859375 40.41690063 17.0712738 C38.98391129 17.06197594 38.98391129 17.06197594 37.52197266 17.05249023 C36.43719635 17.0560704 35.35242004 17.05965057 34.23477173 17.06333923 C33.062883 17.0488826 31.89099426 17.03442596 30.68359375 17.01953125 C28.20963479 17.02913787 25.73567647 17.03890859 23.26171875 17.04882812 C19.35539606 17.04022497 15.44923743 17.02339326 11.54296875 17.0012207 C7.77701408 16.98671797 4.01201435 17.00194495 0.24609375 17.01953125 C-0.92174652 17.00305038 -2.08958679 16.98656952 -3.29281616 16.96958923 C-4.9294371 16.97968773 -4.9294371 16.97968773 -6.59912109 16.98999023 C-7.55603851 16.98458725 -8.51295593 16.97918427 -9.49887085 16.97361755 C-12.9939132 17.52672777 -12.9939132 17.52672777 -17.16796875 22.5859375 C-17.49796875 27.5359375 -17.82796875 32.4859375 -18.16796875 37.5859375 C2.62203125 37.5859375 23.41203125 37.5859375 44.83203125 37.5859375 C44.83203125 43.1959375 44.83203125 48.8059375 44.83203125 54.5859375 C24.04203125 54.5859375 3.25203125 54.5859375 -18.16796875 54.5859375 C-18.16796875 65.1459375 -18.16796875 75.7059375 -18.16796875 86.5859375 C-24.10796875 86.5859375 -30.04796875 86.5859375 -36.16796875 86.5859375 C-36.23598831 78.52718878 -36.2909244 70.46866663 -36.32340527 62.40970707 C-36.33900149 58.66682759 -36.36012773 54.92415623 -36.39428711 51.18139648 C-36.42709829 47.56334348 -36.44486711 43.94548953 -36.45260048 40.32729912 C-36.45810526 38.95311796 -36.46885388 37.57894659 -36.48515892 36.20485115 C-36.60213274 25.92993773 -35.99669229 16.70188687 -29.13215637 8.58169556 C-20.83412586 0.15029061 -11.13196074 -0.24221123 0 0 Z " fill="#EFEFEF" transform="translate(243.16796875,158.4140625)"/>
<path d="M0 0 C22 0 22 0 26.9296875 4.7578125 C28.50732422 7.82543945 28.50732422 7.82543945 29.875 11.125 C30.4127002 12.2183667 30.95040039 13.3117334 31.50439453 14.43823242 C32.56982774 16.60778058 33.60339864 18.7933211 34.6015625 20.99462891 C36.43569894 24.93635719 38.61154579 28.60708085 40.875 32.3125 C44 37.62761506 44 37.62761506 44 41 C29.75958733 42.36992093 29.75958733 42.36992093 25.7421875 39.2421875 C24.21357693 36.88124447 23.11081397 34.5830229 22 32 C20.68 29.69 19.36 27.38 18 25 C17.67 45.13 17.34 65.26 17 86 C11.39 86 5.78 86 0 86 C0 57.62 0 29.24 0 0 Z " fill="#EFF0F0" transform="translate(89,159)"/>
<path d="M0 0 C0.33 0 0.66 0 1 0 C1.33 5.94 1.66 11.88 2 18 C27.74 18 53.48 18 80 18 C80 17.01 80 16.02 80 15 C59.21 15 38.42 15 17 15 C17 10.38 17 5.76 17 1 C17.33 1 17.66 1 18 1 C18 5.29 18 9.58 18 14 C38.79 14 59.58 14 81 14 C81 19.61 81 25.22 81 31 C60.21 31 39.42 31 18 31 C18 41.56 18 52.12 18 63 C12.06 63 6.12 63 0 63 C0 42.21 0 21.42 0 0 Z " fill="#878989" transform="translate(207,182)"/>
<path d="M0 0 C1.11054749 0.03906464 2.22109497 0.07812927 3.36529541 0.11837769 C5.10918549 0.12537186 5.10918549 0.12537186 6.88830566 0.13250732 C9.34284895 0.15194864 11.79730466 0.19544891 14.2510376 0.26144409 C17.98060124 0.35989681 21.70486449 0.38438628 25.43560791 0.39572144 C27.82889241 0.42391379 30.22213162 0.45632995 32.61529541 0.49337769 C34.26897125 0.50946579 34.26897125 0.50946579 35.95605469 0.52587891 C45.47518986 0.81364816 54.76046754 2.77073831 61.83526611 9.56149292 C67.13083102 15.80168687 67.84468001 21.96333259 67.63092041 29.92306519 C67.62963135 30.84667847 67.62834229 31.77029175 67.62701416 32.72189331 C67.56772879 37.29674772 67.43475413 41.09578112 65.25592041 45.23556519 C64.76092041 43.25556519 64.76092041 43.25556519 64.25592041 41.23556519 C58.64592041 41.23556519 53.03592041 41.23556519 47.25592041 41.23556519 C47.75092041 40.10119019 48.24592041 38.96681519 48.75592041 37.79806519 C50.42472306 33.27304262 51.24855034 29.0165809 50.25592041 24.23556519 C47.72623567 20.953812 46.1786071 19.54312741 42.25592041 18.23556519 C40.30875395 18.11880704 38.35798564 18.05886593 36.40753174 18.03024292 C35.20651321 18.0102977 34.00549469 17.99035248 32.76808167 17.96980286 C31.47113876 17.95309036 30.17419586 17.93637787 28.83795166 17.91915894 C27.49701811 17.89858225 26.15609095 17.87758559 24.81517029 17.85618591 C21.28890152 17.80103892 17.76257493 17.75159724 14.23620605 17.70333862 C10.63660548 17.65306968 7.03708868 17.59741179 3.43756104 17.54220581 C-3.62291311 17.43471447 -10.68346241 17.33324954 -17.74407959 17.23556519 C-14.68059253 7.27541627 -11.20057032 0.13027433 0 0 Z " fill="#EDEDED" transform="translate(314.74407958984375,157.76443481445313)"/>
<path d="M0 0 C2.66648371 3.33105349 4.6669681 6.87197848 6.6875 10.625 C7.31011719 11.77226562 7.93273437 12.91953125 8.57421875 14.1015625 C10 17 10 17 10 19 C12.18520678 16.96718622 13.66511505 15.06854982 15.04296875 12.42578125 C15.36031982 11.82419189 15.6776709 11.22260254 16.00463867 10.6027832 C16.59015503 9.46909302 16.59015503 9.46909302 17.1875 8.3125 C18.445625 5.899375 19.70375 3.48625 21 1 C26.94 1.33 32.88 1.66 39 2 C33.79274568 12.70380055 28.19471834 22.96927667 22.08056641 33.17626953 C20.29466727 36.19042827 18.60637147 39.25588795 16.9375 42.3359375 C16.03565287 43.93671616 15.01917321 45.47124019 14 47 C11.375 47.1875 11.375 47.1875 9 47 C8.37738281 45.90171875 8.37738281 45.90171875 7.7421875 44.78125 C7.12601563 43.6984375 6.50984375 42.615625 5.875 41.5 C5.53315674 40.89921631 5.19131348 40.29843262 4.83911133 39.67944336 C2.40943458 35.42529742 -0.05686123 31.19408663 -2.54296875 26.97265625 C-3.16349121 25.91691406 -3.78401367 24.86117187 -4.42333984 23.7734375 C-5.6663443 21.66074758 -6.91267545 19.55001082 -8.16259766 17.44140625 C-8.74444824 16.45140625 -9.32629883 15.46140625 -9.92578125 14.44140625 C-10.44567627 13.56170166 -10.96557129 12.68199707 -11.5012207 11.77563477 C-13.20554553 8.61934401 -14.5869936 5.29701492 -16 2 C-10.72 2 -5.44 2 0 2 C0 1.34 0 0.68 0 0 Z " fill="#A4A6A6" transform="translate(133,198)"/>
<path d="M0 0 C7.26 0 14.52 0 22 0 C22 0.33 22 0.66 22 1 C15.07 1 8.14 1 1 1 C1 13.87 1 26.74 1 40 C5.95 40 10.9 40 16 40 C16 34.39 16 28.78 16 23 C16.66 23.33 17.32 23.66 18 24 C17.67 44.46 17.34 64.92 17 86 C11.39 86 5.78 86 0 86 C0 57.62 0 29.24 0 0 Z " fill="#ADB0B2" transform="translate(89,159)"/>
<path d="M0 0 C0.33 0 0.66 0 1 0 C1 28.38 1 56.76 1 86 C-4.61 86 -10.22 86 -16 86 C-16 70.16 -16 54.32 -16 38 C-15.67 38.66 -15.34 39.32 -15 40 C-10.38 39.67 -5.76 39.34 -1 39 C-1 52.86 -1 66.72 -1 81 C-1.99 81 -2.98 81 -4 81 C-4.33 80.34 -4.66 79.68 -5 79 C-5.33 80.65 -5.66 82.3 -6 84 C-7.87511574 84 -9.75041553 83.98213296 -11.625 83.9375 C-13.95562735 83.72620721 -13.95562735 83.72620721 -15 85 C-10.05 85 -5.1 85 0 85 C0 56.95 0 28.9 0 0 Z " fill="#AAADAE" transform="translate(199,159)"/>
<path d="M0 0 C4.19915307 -0.09907258 8.39768252 -0.17156173 12.59765625 -0.21972656 C14.02551121 -0.23980982 15.45328425 -0.26708252 16.88085938 -0.30175781 C18.93640368 -0.35042669 20.99085855 -0.37299967 23.046875 -0.390625 C24.28276367 -0.41157227 25.51865234 -0.43251953 26.79199219 -0.45410156 C30.62149089 0.0879736 31.49369845 1.18364053 34 4 C37.64721696 4.80765878 37.64721696 4.80765878 41 5 C41 5.66 41 6.32 41 7 C42.0725 6.505 43.145 6.01 44.25 5.5 C47.25416808 4.11346089 48.45934895 4 52 4 C53.53637695 5.15820312 53.53637695 5.15820312 54.98828125 6.78125 C55.52670654 7.37252686 56.06513184 7.96380371 56.61987305 8.57299805 C57.17843994 9.20890869 57.73700684 9.84481934 58.3125 10.5 C58.88846924 11.1391333 59.46443848 11.7782666 60.05786133 12.43676758 C61.71597267 14.28194549 63.35924283 16.139396 65 18 C65.77085937 18.85980469 66.54171875 19.71960938 67.3359375 20.60546875 C69.7656874 23.33765588 71.96790285 25.95185428 74 29 C54.74775522 31.05069291 54.74775522 31.05069291 48.9921875 27.90136719 C45.69922165 25.03195311 43.44382599 21.48181402 41.17382812 17.78369141 C39.24739299 14.85637545 36.85254287 12.4009797 34.4375 9.875 C32.04427351 7.29414455 29.95443752 4.93165628 28 2 C25.09386566 1.48853802 25.09386566 1.48853802 21.6796875 1.48828125 C19.79443359 1.43510742 19.79443359 1.43510742 17.87109375 1.38085938 C16.55238281 1.35830078 15.23367188 1.33574219 13.875 1.3125 C12.53512241 1.27933471 11.19527689 1.24484578 9.85546875 1.20898438 C6.5703967 1.12626673 3.28559968 1.05719307 0 1 C0 0.67 0 0.34 0 0 Z " fill="#D1D2D1" transform="translate(313,216)"/>
<path d="M0 0 C0.33 0 0.66 0 1 0 C1 4.29 1 8.58 1 13 C21.79 13 42.58 13 64 13 C64 18.61 64 24.22 64 30 C43.21 30 22.42 30 1 30 C1 40.56 1 51.12 1 62 C-4.61 62 -10.22 62 -16 62 C-16 58.37 -16 54.74 -16 51 C-15.34 51.33 -14.68 51.66 -14 52 C-14.33 52.66 -14.66 53.32 -15 54 C-13.72125 54.020625 -12.4425 54.04125 -11.125 54.0625 C-10.04605469 54.07990234 -10.04605469 54.07990234 -8.9453125 54.09765625 C-6.91814596 54.12649242 -6.91814596 54.12649242 -5 53 C-5 53.66 -5 54.32 -5 55 C-3.68 55 -2.36 55 -1 55 C-1.00523682 54.21761963 -1.01047363 53.43523926 -1.01586914 52.62915039 C-1.03657106 49.10694167 -1.04963838 45.5847457 -1.0625 42.0625 C-1.07506836 40.21495117 -1.07506836 40.21495117 -1.08789062 38.33007812 C-1.09111328 37.16025391 -1.09433594 35.99042969 -1.09765625 34.78515625 C-1.10289307 33.70113525 -1.10812988 32.61711426 -1.11352539 31.50024414 C-1 29 -1 29 0 28 C1.93306498 27.90603943 3.86958838 27.88256483 5.80493164 27.88647461 C7.04614273 27.88655014 8.28735382 27.88662567 9.56617737 27.88670349 C10.9308374 27.89181089 12.29549702 27.8970269 13.66015625 27.90234375 C15.04878183 27.904208 16.43740807 27.90563187 17.82603455 27.90663147 C21.48721115 27.91045613 25.1483483 27.92028597 28.80950928 27.93133545 C32.54292263 27.94155068 36.27634234 27.94612933 40.00976562 27.95117188 C47.33986177 27.96190829 54.66992536 27.97898409 62 28 C61.98839844 27.24074219 61.97679687 26.48148438 61.96484375 25.69921875 C61.95582031 24.70535156 61.94679688 23.71148437 61.9375 22.6875 C61.92589844 21.70136719 61.91429687 20.71523437 61.90234375 19.69921875 C62 17 62 17 63 14 C42.21 14 21.42 14 0 14 C0 9.38 0 4.76 0 0 Z " fill="#939593" transform="translate(224,183)"/>
<path d="M0 0 C3.63781245 1.33343303 6.6601949 2.97178163 9.875 5.125 C27.07389602 16.21436861 45.0804698 23.48056985 65 28 C65.84997559 28.19899902 66.69995117 28.39799805 67.57568359 28.60302734 C91.50351829 34.04056432 116.97434532 33.76469069 141 29 C141.72606445 28.86609863 142.45212891 28.73219727 143.20019531 28.59423828 C159.43621064 25.55413101 174.63847906 19.13105704 189.15258789 11.35058594 C190.74060494 10.51216978 192.36747407 9.74806345 194 9 C194.99 9.495 194.99 9.495 196 10 C179.3159011 19.80141507 163.17001969 26.91113115 144.12548828 30.58251953 C142.08533628 30.98323857 140.05686359 31.41992017 138.02734375 31.87109375 C129.66941134 33.67751348 121.54492365 34.72273109 113 35 C112.19675293 35.02723145 111.39350586 35.05446289 110.56591797 35.08251953 C97.07622137 35.48037925 84.2405976 34.61161855 71 32 C70.1455127 31.83371094 69.29102539 31.66742188 68.41064453 31.49609375 C45.17804537 26.82969853 19.31183546 17.56948329 1 2 C0.67 1.34 0.34 0.68 0 0 Z " fill="#030C0D" transform="translate(130,350)"/>
<path d="M0 0 C0.33 0 0.66 0 1 0 C1 28.38 1 56.76 1 86 C-4.61 86 -10.22 86 -16 86 C-16 70.16 -16 54.32 -16 38 C-15.67 38.66 -15.34 39.32 -15 40 C-10.38 39.67 -5.76 39.34 -1 39 C-1 39.66 -1 40.32 -1 41 C-5.62 41 -10.24 41 -15 41 C-14.46356473 52.34503535 -13.88120182 63.67561921 -13 75 C-13.66 75 -14.32 75 -15 75 C-15 78.3 -15 81.6 -15 85 C-10.05 85 -5.1 85 0 85 C0 56.95 0 28.9 0 0 Z " fill="#A7A9AA" transform="translate(199,159)"/>
<path d="M0 0 C0.66 0.33 1.32 0.66 2 1 C2 20.8 2 40.6 2 61 C-2.95 61 -7.9 61 -13 61 C-13 57.7 -13 54.4 -13 51 C-12.67 51 -12.34 51 -12 51 C-12 53.97 -12 56.94 -12 60 C-10.865625 59.67 -9.73125 59.34 -8.5625 59 C-5 58 -5 58 -4 58 C-3.505 55.03 -3.505 55.03 -3 52 C-2.67 52 -2.34 52 -2 52 C-1.67 53.65 -1.34 55.3 -1 57 C0.29487016 53.11538953 0.1232604 49.44116044 0.09765625 45.39453125 C0.0962413 44.55532639 0.09482635 43.71612152 0.09336853 42.85148621 C0.08777215 40.17178784 0.07522035 37.4921731 0.0625 34.8125 C0.05748453 32.99544392 0.05292171 31.17838652 0.04882812 29.36132812 C0.03780391 24.90751987 0.02054178 20.45377411 0 16 C-0.99 15.67 -1.98 15.34 -3 15 C-2.88623383 12.87436897 -2.75864369 10.7494739 -2.625 8.625 C-2.52058594 6.84996094 -2.52058594 6.84996094 -2.4140625 5.0390625 C-2 2 -2 2 0 0 Z M-2 58 C-1 60 -1 60 -1 60 Z " fill="#DDDFDF" transform="translate(197,183)"/>
<path d="M0 0 C3.88935099 3.88935099 3.12791801 9.79250587 3.1328125 15.015625 C3.13376923 15.67149597 3.13472595 16.32736694 3.13571167 17.00311279 C3.13638859 18.38472592 3.13456854 19.76634231 3.13037109 21.14794922 C3.12505054 23.23021857 3.13031482 25.31226882 3.13671875 27.39453125 C3.14822667 44.14706581 3.14822667 44.14706581 2 49 C1.01 49.495 1.01 49.495 0 50 C-2.16579185 33.48583717 -1.13236166 16.56078933 0 0 Z " fill="#182926" transform="translate(399,179)"/>
<path d="M0 0 C22.77 0 45.54 0 69 0 C69 0.66 69 1.32 69 2 C60.29913285 2.19997711 51.5981202 2.38372277 42.89647865 2.54658794 C38.85622042 2.62272155 34.81623929 2.7045032 30.77636719 2.79907227 C26.87973904 2.89008231 22.98307756 2.96641334 19.08594894 3.03244972 C17.59705202 3.06028277 16.10824534 3.09345978 14.61958694 3.13199425 C12.53885536 3.18495351 10.45861699 3.21912539 8.37744141 3.2487793 C7.19163483 3.27320602 6.00582825 3.29763275 4.78408813 3.32279968 C3.86533905 3.21627579 2.94658997 3.10975189 2 3 C1.34 2.01 0.68 1.02 0 0 Z " fill="#121213" transform="translate(226,155)"/>
<path d="M0 0 C0.99 0.33 1.98 0.66 3 1 C3 13.87 3 26.74 3 40 C4.65 40 6.3 40 8 40 C8 40.66 8 41.32 8 42 C10.64 42 13.28 42 16 42 C16 42.33 16 42.66 16 43 C10.72 43 5.44 43 0 43 C0 28.81 0 14.62 0 0 Z " fill="#B5B8B8" transform="translate(296,202)"/>
<path d="M0 0 C0.66 0 1.32 0 2 0 C2.33 1.98 2.66 3.96 3 6 C3.33 6 3.66 6 4 6 C3.979375 7.093125 3.95875 8.18625 3.9375 9.3125 C3.81455548 12.94384191 3.81455548 12.94384191 5 16 C5.0685495 17.89470816 5.08480372 19.7916834 5.0625 21.6875 C5.05347656 22.68136719 5.04445313 23.67523438 5.03515625 24.69921875 C5.02355469 25.45847656 5.01195313 26.21773437 5 27 C4.34 25.68 3.68 24.36 3 23 C0.56085508 25.43914492 0.71337477 26.21446431 0.5859375 29.5703125 C0.54726562 30.46621094 0.50859375 31.36210937 0.46875 32.28515625 C0.4378125 33.22230469 0.406875 34.15945312 0.375 35.125 C0.33632812 36.06988281 0.29765625 37.01476562 0.2578125 37.98828125 C0.16338654 40.32532375 0.07781606 42.66235501 0 45 C-0.33 45 -0.66 45 -1 45 C-1.02494747 40.19857144 -1.04297577 35.39718164 -1.05493164 30.59570312 C-1.05992239 28.96646466 -1.06671735 27.33723058 -1.07543945 25.70800781 C-1.12049453 17.06803373 -1.10156149 8.58697539 0 0 Z " fill="#A3A6A9" transform="translate(90,200)"/>
<path d="M0 0 C0.99 0.495 0.99 0.495 2 1 C1.67 1.66 1.34 2.32 1 3 C2.27875 3.020625 3.5575 3.04125 4.875 3.0625 C5.59429687 3.07410156 6.31359375 3.08570313 7.0546875 3.09765625 C9.08185404 3.12649242 9.08185404 3.12649242 11 2 C11 2.66 11 3.32 11 4 C12.32 4 13.64 4 15 4 C15.33 3.01 15.66 2.02 16 1 C16 3.97 16 6.94 16 10 C8.08 10.495 8.08 10.495 0 11 C0 7.37 0 3.74 0 0 Z " fill="#E2E4E3" transform="translate(208,234)"/>
<path d="M0 0 C19.14 0 38.28 0 58 0 C55 3 55 3 52.55122375 3.32279968 C51.09561287 3.28615959 51.09561287 3.28615959 49.6105957 3.2487793 C48.50968094 3.22853195 47.40876617 3.20828461 46.27449036 3.18742371 C45.08691635 3.15006607 43.89934235 3.11270844 42.67578125 3.07421875 C41.45924362 3.04777786 40.24270599 3.02133698 38.98930359 2.99409485 C35.09654433 2.90619338 31.20470332 2.79708887 27.3125 2.6875 C24.6764654 2.62425587 22.04039735 2.56238935 19.40429688 2.50195312 C12.93572475 2.3506298 6.46778095 2.1818865 0 2 C0 1.34 0 0.68 0 0 Z " fill="#121314" transform="translate(307,155)"/>
<path d="M0 0 C1.30195313 0.00322266 2.60390625 0.00644531 3.9453125 0.00976562 C5.32552149 0.01812159 6.70572982 0.02658654 8.0859375 0.03515625 C9.47395676 0.04017124 10.86197772 0.04473415 12.25 0.04882812 C15.65368882 0.06064649 19.05729189 0.07712191 22.4609375 0.09765625 C22.4609375 0.75765625 22.4609375 1.41765625 22.4609375 2.09765625 C24.1109375 2.09765625 25.7609375 2.09765625 27.4609375 2.09765625 C27.4609375 2.42765625 27.4609375 2.75765625 27.4609375 3.09765625 C9.6409375 3.09765625 -8.1790625 3.09765625 -26.5390625 3.09765625 C-26.5390625 2.76765625 -26.5390625 2.43765625 -26.5390625 2.09765625 C-25.26289063 2.03707031 -23.98671875 1.97648438 -22.671875 1.9140625 C-21.00259234 1.82966057 -19.33332213 1.74501239 -17.6640625 1.66015625 C-16.82230469 1.62083984 -15.98054687 1.58152344 -15.11328125 1.54101562 C-14.30761719 1.49912109 -13.50195312 1.45722656 -12.671875 1.4140625 C-11.55643311 1.35907593 -11.55643311 1.35907593 -10.41845703 1.30297852 C-6.74623045 0.90179086 -3.9315153 -0.01709354 0 0 Z " fill="#DDDEDE" transform="translate(258.5390625,171.90234375)"/>
<path d="M0 0 C2.7885289 -0.22107787 5.34653181 -0.28107535 8.125 -0.1875 C8.87910156 -0.17396484 9.63320313 -0.16042969 10.41015625 -0.14648438 C12.27374127 -0.11109985 14.13695978 -0.05729167 16 0 C15.32084333 4.31085759 14.3222714 6.10640878 11 9 C10.34 8.67 9.68 8.34 9 8 C8.01 8.33 7.02 8.66 6 9 C3.6593935 8.72230092 1.32375692 8.39460023 -1 8 C-1 7.67 -1 7.34 -1 7 C0.65 6.67 2.3 6.34 4 6 C1.1315587 3.89767656 1.1315587 3.89767656 -2 3 C-1.34 2.01 -0.68 1.02 0 0 Z " fill="#6C6C6C" transform="translate(363,199)"/>
<path d="M0 0 C0.99 0 1.98 0 3 0 C4.33589978 11.30743746 4.09861278 22.63373899 4 34 C3.01 34 2.02 34 1 34 C0.8028949 32.12598537 0.61776887 30.25070903 0.4375 28.375 C0.33308594 27.33085937 0.22867188 26.28671875 0.12109375 25.2109375 C0 22 0 22 0.5 19.01953125 C1.06045992 15.63487878 0.88335313 12.72304999 0.5625 9.3125 C0 3.13924051 0 3.13924051 0 0 Z " fill="#AFB2B3" transform="translate(194,206)"/>
<path d="M0 0 C0.66 0.33 1.32 0.66 2 1 C-5.7163842 9.4475475 -13.56543163 17.68894455 -21.75 25.6875 C-24.33508688 28.34439485 -26.66030657 31.1255195 -29 34 C-29 26.45880207 -19.06127732 18.58755156 -14.13671875 13.08984375 C-12 11 -12 11 -10 11 C-9.67 10.01 -9.34 9.02 -9 8 C-7.1875 6.2109375 -7.1875 6.2109375 -5 4.375 C-4.278125 3.76398438 -3.55625 3.15296875 -2.8125 2.5234375 C-2.214375 2.02070312 -1.61625 1.51796875 -1 1 C-0.67 0.67 -0.34 0.34 0 0 Z " fill="#011119" transform="translate(119,65)"/>
<path d="M0 0 C2.475 0.495 2.475 0.495 5 1 C4.01 1.33 3.02 1.66 2 2 C2 2.66 2 3.32 2 4 C-12.19 4 -26.38 4 -41 4 C-40.67 3.34 -40.34 2.68 -40 2 C-26.8 2 -13.6 2 0 2 C0 1.34 0 0.68 0 0 Z " fill="#F2F3F3" transform="translate(356,170)"/>
<path d="M0 0 C4.66539139 1.48246082 7.94588103 4.19517319 11.5625 7.375 C12.17311279 7.90665771 12.78372559 8.43831543 13.4128418 8.98608398 C39.61159794 32.04791507 39.61159794 32.04791507 41 41 C37.33191761 37.43747393 34.00430955 33.69497236 30.75 29.75 C23.6941631 21.33142744 16.21456855 13.95886991 7.578125 7.140625 C4.88317205 4.9029974 2.44030829 2.51053299 0 0 Z " fill="#06110F" transform="translate(340,58)"/>
<path d="M0 0 C4.19915307 -0.09907258 8.39768252 -0.17156173 12.59765625 -0.21972656 C14.02551121 -0.23980982 15.45328425 -0.26708252 16.88085938 -0.30175781 C18.93640368 -0.35042669 20.99085855 -0.37299967 23.046875 -0.390625 C24.28276367 -0.41157227 25.51865234 -0.43251953 26.79199219 -0.45410156 C30.62149089 0.0879736 31.49369845 1.18364053 34 4 C37.64721696 4.80765878 37.64721696 4.80765878 41 5 C40.01 5.33 39.02 5.66 38 6 C37.67 7.65 37.34 9.3 37 11 C38.65 11 40.3 11 42 11 C41.67 11.66 41.34 12.32 41 13 C40.01 13.33 39.02 13.66 38 14 C37.60296875 13.14535156 37.2059375 12.29070312 36.796875 11.41015625 C34.29964952 7.32595351 32.29076265 4.27793557 28 2 C18.86303773 0.10973727 9.2779472 0.62054154 0 1 C0 0.67 0 0.34 0 0 Z " fill="#AFB0AF" transform="translate(313,216)"/>
<path d="M0 0 C1.70884005 1.62339805 3.37446717 3.29319053 5 5 C5 5.66 5 6.32 5 7 C8.465 6.505 8.465 6.505 12 6 C12.6875 7.75 12.6875 7.75 13 10 C11.5625 12.25 11.5625 12.25 10 14 C10.350625 14.5775 10.70125 15.155 11.0625 15.75 C12.16577711 18.39786506 11.80156509 19.33185326 11 22 C9.15609053 18.90200027 7.32673941 15.79564999 5.5 12.6875 C4.97535156 11.80642578 4.45070312 10.92535156 3.91015625 10.01757812 C3.41386719 9.17001953 2.91757813 8.32246094 2.40625 7.44921875 C1.94541016 6.66893311 1.48457031 5.88864746 1.00976562 5.0847168 C0 3 0 3 0 0 Z " fill="#B7B9BA" transform="translate(128,218)"/>
<path d="M0 0 C15.51 0 31.02 0 47 0 C46.67 0.66 46.34 1.32 46 2 C45.03175293 1.99476318 44.06350586 1.98952637 43.06591797 1.98413086 C39.45411106 1.965953 35.84230816 1.95452146 32.23046875 1.94506836 C30.67089151 1.94005728 29.11131892 1.93324663 27.55175781 1.92456055 C25.30272264 1.91235314 23.0537499 1.90673932 20.8046875 1.90234375 C20.1138205 1.89718246 19.42295349 1.89202118 18.71115112 1.88670349 C14.69256165 1.88624376 10.95132872 2.3131718 7 3 C4.25 2.5625 4.25 2.5625 2 2 C1.34 2 0.68 2 0 2 C0 1.34 0 0.68 0 0 Z " fill="#757774" transform="translate(239,200)"/>
<path d="M0 0 C7.59 0 15.18 0 23 0 C23 0.99 23 1.98 23 3 C15.41 3 7.82 3 0 3 C0 2.01 0 1.02 0 0 Z " fill="#151517" transform="translate(177,155)"/>
<path d="M0 0 C1 3 1 3 -0.15234375 5.34765625 C-4.44139131 11.87038722 -9.01654939 17.99430311 -14 24 C-15.66723908 26.04119925 -17.33390908 28.08286347 -19 30.125 C-20.33278126 31.75045282 -21.66590963 33.37562145 -23 35 C-23.66 34.67 -24.32 34.34 -25 34 C-24.46632813 33.35675781 -23.93265625 32.71351563 -23.3828125 32.05078125 C-10.70173773 16.72777794 -10.70173773 16.72777794 0 0 Z " fill="#061514" transform="translate(390,293)"/>
<path d="M0 0 C4.29 0 8.58 0 13 0 C13 5.94 13 11.88 13 18 C12.67 18 12.34 18 12 18 C12 14.04 12 10.08 12 6 C11.01 6 10.02 6 9 6 C9 5.01 9 4.02 9 3 C5.56769552 3.26393501 5.56769552 3.26393501 2 4 C1.34 4.99 0.68 5.98 0 7 C0 4.69 0 2.38 0 0 Z " fill="#7D807F" transform="translate(185,200)"/>
<path d="M0 0 C1.97805311 1.63880917 2.91505716 2.51226372 3.36328125 5.0859375 C3.26586411 9.47720263 3.06047811 13.00782367 1 17 C-0.32 17 -1.64 17 -3 17 C-2.69095829 14.72869344 -2.37765093 12.45796695 -2.0625 10.1875 C-1.88847656 8.92292969 -1.71445312 7.65835938 -1.53515625 6.35546875 C-1 3 -1 3 0 0 Z " fill="#242527" transform="translate(363,179)"/>
<path d="M0 0 C9.24 0 18.48 0 28 0 C28 0.33 28 0.66 28 1 C24.04 1 20.08 1 16 1 C15.67 1.99 15.34 2.98 15 4 C10.38 4 5.76 4 1 4 C0.67 2.68 0.34 1.36 0 0 Z " fill="#343537" transform="translate(313,217)"/>
<path d="M0 0 C1.06079773 0.00030212 2.12159546 0.00060425 3.21453857 0.00091553 C4.35320374 0.02156067 5.4918689 0.04220581 6.66503906 0.06347656 C7.83576965 0.06913635 9.00650024 0.07479614 10.21270752 0.08062744 C13.95244206 0.10302031 17.69121903 0.15322476 21.43066406 0.20410156 C23.96580648 0.22416268 26.50096391 0.24241412 29.03613281 0.25878906 C35.25130335 0.30289478 41.4659153 0.36983702 47.68066406 0.45410156 C47.68066406 0.78410156 47.68066406 1.11410156 47.68066406 1.45410156 C47.080112 1.4599678 46.47955994 1.46583405 45.86080933 1.47187805 C39.59863058 1.53591373 33.33696091 1.62035979 27.07519531 1.71655273 C24.7396517 1.74976489 22.40402854 1.77780832 20.06835938 1.80053711 C16.70701261 1.83415058 13.34639238 1.88647159 9.98535156 1.94238281 C8.42408035 1.9519677 8.42408035 1.9519677 6.83126831 1.96174622 C1.2665659 2.07407814 -2.40250424 2.59662124 -7.31933594 5.45410156 C-7.97933594 5.12410156 -8.63933594 4.79410156 -9.31933594 4.45410156 C-6.31073793 0.89688398 -4.65145557 -0.04429958 0 0 Z " fill="#0F1011" transform="translate(236.3193359375,175.5458984375)"/>
<path d="M0 0 C2.99816996 5.99633993 2.12356614 11.32742834 2 18 C-3.28 18 -8.56 18 -14 18 C-13.67 16.68 -13.34 15.36 -13 14 C-12.67 14.33 -12.34 14.66 -12 15 C-9.44436629 15.07211665 -6.90339547 14.99633716 -4.34765625 14.9375 C-2 15 -2 15 0 16 C0 10.72 0 5.44 0 0 Z " fill="#D9DEE3" transform="translate(104,227)"/>
<path d="M0 0 C4.95 0 9.9 0 15 0 C13.68 2.64 12.36 5.28 11 8 C9.68 7.34 8.36 6.68 7 6 C7.33 5.01 7.66 4.02 8 3 C5.58354218 2.83312552 5.58354218 2.83312552 3 3 C2.34 3.66 1.68 4.32 1 5 C0.01 5 -0.98 5 -2 5 C-1.34 3.35 -0.68 1.7 0 0 Z " fill="#6F706E" transform="translate(155,201)"/>
<path d="M0 0 C0.66 0 1.32 0 2 0 C2 5.28 2 10.56 2 16 C3.65 16 5.3 16 7 16 C7 16.66 7 17.32 7 18 C9.64 18 12.28 18 15 18 C15 18.33 15 18.66 15 19 C10.05 19 5.1 19 0 19 C0 12.73 0 6.46 0 0 Z " fill="#DDE1E0" transform="translate(297,226)"/>
<path d="M0 0 C0.66 0.33 1.32 0.66 2 1 C2 6.28 2 11.56 2 17 C0.35 16.67 -1.3 16.34 -3 16 C-2.88628503 13.70774565 -2.75869036 11.41617612 -2.625 9.125 C-2.55539063 7.84882813 -2.48578125 6.57265625 -2.4140625 5.2578125 C-2 2 -2 2 0 0 Z " fill="#E4E5E4" transform="translate(197,183)"/>
<path d="M0 0 C0.66 0 1.32 0 2 0 C2.33 1.98 2.66 3.96 3 6 C3.33 6 3.66 6 4 6 C4.20413361 11.73842251 4.27141454 16.60539047 2 22 C1.67 22 1.34 22 1 22 C-0.17700048 17.37540756 -0.11408412 12.92133538 -0.0625 8.1875 C-0.05573242 7.00510742 -0.05573242 7.00510742 -0.04882812 5.79882812 C-0.03711312 3.86585239 -0.01917998 1.93291607 0 0 Z " fill="#878A8B" transform="translate(90,200)"/>
<path d="M0 0 C0.66 3.63 1.32 7.26 2 11 C1.34 11 0.68 11 0 11 C-0.28875 11.5775 -0.5775 12.155 -0.875 12.75 C-1.91666667 14.83333333 -2.95833333 16.91666667 -4 19 C-4.08117951 16.58265458 -4.14056926 14.16805051 -4.1875 11.75 C-4.21263672 11.06808594 -4.23777344 10.38617188 -4.26367188 9.68359375 C-4.31078966 6.44817246 -4.19825578 4.33986706 -2.55078125 1.515625 C-1 0 -1 0 0 0 Z " fill="#CCCFD1" transform="translate(94,221)"/>
<path d="M0 0 C0.33 0 0.66 0 1 0 C1 3.63 1 7.26 1 11 C1.66 11 2.32 11 3 11 C2.67 14.96 2.34 18.92 2 23 C1.01 23.33 0.02 23.66 -1 24 C-1.125 17.25 -1.125 17.25 0 15 C-0.165 14.34 -0.33 13.68 -0.5 13 C-1.2343119 8.5941286 -0.55623553 4.4070969 0 0 Z " fill="#0FBCB9" transform="translate(407,224)"/>
<path d="M0 0 C1.75 0.1875 1.75 0.1875 4 1 C5.32 2.65 6.64 4.3 8 6 C0.74 6 -6.52 6 -14 6 C-14 5.67 -14 5.34 -14 5 C-6.08 4.505 -6.08 4.505 2 4 C1.34 2.68 0.68 1.36 0 0 Z " fill="#DADCDB" transform="translate(379,239)"/>
<path d="M0 0 C0.3669579 6.48292295 0.3669579 6.48292295 -1.375 8.9375 C-3 10 -3 10 -5 10 C-5.33 7.69 -5.66 5.38 -6 3 C-1.125 0 -1.125 0 0 0 Z " fill="#12BDBA" transform="translate(407,175)"/>
<path d="M0 0 C1.32 0.33 2.64 0.66 4 1 C4 1.99 4 2.98 4 4 C7.63 4.33 11.26 4.66 15 5 C15 5.33 15 5.66 15 6 C9.39 6 3.78 6 -2 6 C-1.34 4.02 -0.68 2.04 0 0 Z " fill="#DBDCDB" transform="translate(157,194)"/>
<path d="M0 0 C2.97 0 5.94 0 9 0 C9 2.97 9 5.94 9 9 C8.01 9.33 7.02 9.66 6 10 C6 9.34 6 8.68 6 8 C4.68 8.33 3.36 8.66 2 9 C3 6 3 6 5.0625 4.8125 C5.701875 4.544375 6.34125 4.27625 7 4 C7 3.34 7 2.68 7 2 C4.69 1.67 2.38 1.34 0 1 C0 0.67 0 0.34 0 0 Z " fill="#7E8082" transform="translate(96,200)"/>
<path d="M0 0 C1.98 0.66 3.96 1.32 6 2 C5.79375 2.598125 5.5875 3.19625 5.375 3.8125 C4.69328085 6.28450846 4.69328085 6.28450846 7 9 C6.625 11.1875 6.625 11.1875 6 13 C4.99491199 11.21118264 3.99607264 9.41885304 3 7.625 C2.1646875 6.12839844 2.1646875 6.12839844 1.3125 4.6015625 C0 2 0 2 0 0 Z " fill="#CFD2D2" transform="translate(133,227)"/>
<path d="M0 0 C0.33 1.32 0.66 2.64 1 4 C0.34 4 -0.32 4 -1 4 C-1.28875 4.886875 -1.5775 5.77375 -1.875 6.6875 C-2.83148748 9.50382424 -3.86798946 12.25083156 -5 15 C-5.99 15 -6.98 15 -8 15 C-6.51194289 9.19657726 -3.40902445 4.82409121 0 0 Z " fill="#262729" transform="translate(181,184)"/>
<path d="M0 0 C0.66 0.33 1.32 0.66 2 1 C2.4140625 3.06640625 2.4140625 3.06640625 2.625 5.5625 C2.69976562 6.38878906 2.77453125 7.21507812 2.8515625 8.06640625 C2.90054687 8.70449219 2.94953125 9.34257812 3 10 C1.35 10.33 -0.3 10.66 -2 11 C-1.34 7.37 -0.68 3.74 0 0 Z " fill="#087D7B" transform="translate(409,162)"/>
<path d="M0 0 C0.99 0.33 1.98 0.66 3 1 C5.00875442 0.72428861 7.01178687 0.39764263 9 0 C8.34 1.65 7.68 3.3 7 5 C5.35 5 3.7 5 2 5 C1.34 3.35 0.68 1.7 0 0 Z " fill="#DCDFE0" transform="translate(140,240)"/>
<path d="M0 0 C2.64 0 5.28 0 8 0 C8.33 0.66 8.66 1.32 9 2 C5.36576791 4.32590854 2.22911669 4.16265833 -2 4 C-1.34 2.68 -0.68 1.36 0 0 Z " fill="#606162" transform="translate(363,199)"/>
<path d="M0 0 C0.99 0.33 1.98 0.66 3 1 C2.71861942 3.29295236 2.4245814 5.58435456 2.125 7.875 C1.88136719 9.78925781 1.88136719 9.78925781 1.6328125 11.7421875 C1 15 1 15 -1 17 C-0.67 11.39 -0.34 5.78 0 0 Z " fill="#0F0F11" transform="translate(360,178)"/>
<path d="M0 0 C4.95 0 9.9 0 15 0 C15 0.33 15 0.66 15 1 C8.565 1.495 8.565 1.495 2 2 C1.67 3.98 1.34 5.96 1 8 C0.67 8 0.34 8 0 8 C0 5.36 0 2.72 0 0 Z " fill="#07A69D" transform="translate(235,25)"/>
<path d="M0 0 C0.36923077 7.50769231 0.36923077 7.50769231 -1.5 10 C-1.995 10.33 -2.49 10.66 -3 11 C-4.34965035 4.61983471 -4.34965035 4.61983471 -2.625 1.5625 C-1 0 -1 0 0 0 Z " fill="#B8BBBE" transform="translate(94,221)"/>
<path d="M0 0 C2.475 0.495 2.475 0.495 5 1 C4.67 2.32 4.34 3.64 4 5 C5.65 5 7.3 5 9 5 C8.67 5.66 8.34 6.32 8 7 C7.01 7.33 6.02 7.66 5 8 C0 2.25 0 2.25 0 0 Z " fill="#BFBFBF" transform="translate(346,222)"/>
<path d="M0 0 C2.97 0 5.94 0 9 0 C7 2 7 2 4.5 2.4375 C1.65063471 2.7765556 1.65063471 2.7765556 0 6 C0 4.02 0 2.04 0 0 Z " fill="#5D6061" transform="translate(185,201)"/>
<path d="M0 0 C2 2 2 2 2 5 C-2.62 5 -7.24 5 -12 5 C-12 4.67 -12 4.34 -12 4 C-6.555 3.505 -6.555 3.505 -1 3 C-0.67 2.01 -0.34 1.02 0 0 Z " fill="#D9D9D9" transform="translate(131,195)"/>
<path d="M0 0 C0 2.64 0 5.28 0 8 C-0.99 8 -1.98 8 -3 8 C-3.6875 5.6875 -3.6875 5.6875 -4 3 C-1.72413793 0 -1.72413793 0 0 0 Z " fill="#06BAB4" transform="translate(411,170)"/>
<path d="M0 0 C0.66 1.32 1.32 2.64 2 4 C0.35 4.33 -1.3 4.66 -3 5 C-3.33 4.01 -3.66 3.02 -4 2 C-2.68 1.34 -1.36 0.68 0 0 Z " fill="#BEC1C3" transform="translate(139,224)"/>
<path d="M0 0 C0.66 0.33 1.32 0.66 2 1 C1.67 1.66 1.34 2.32 1 3 C1.99 2.67 2.98 2.34 4 2 C3.34 3.32 2.68 4.64 2 6 C0 4.625 0 4.625 -2 3 C-2 2.34 -2 1.68 -2 1 C-1.34 0.67 -0.68 0.34 0 0 Z " fill="#313335" transform="translate(364,215)"/>
<path d="M0 0 C2 2 2 2 2.125 5.125 C2.08375 6.07375 2.0425 7.0225 2 8 C1.01 8.33 0.02 8.66 -1 9 C-0.67 6.03 -0.34 3.06 0 0 Z " fill="#0FC5C5" transform="translate(403,205)"/>
<path d="M0 0 C0.66 0.33 1.32 0.66 2 1 C0.68 2.65 -0.64 4.3 -2 6 C-3.32 5.67 -4.64 5.34 -6 5 C-4.02 3.35 -2.04 1.7 0 0 Z " fill="#03121C" transform="translate(127,59)"/>
<path d="M0 0 C0.66 0 1.32 0 2 0 C2.33 1.98 2.66 3.96 3 6 C2.34 6 1.68 6 1 6 C0.67 6.99 0.34 7.98 0 9 C0 6.03 0 3.06 0 0 Z " fill="#CDD0D0" transform="translate(183,228)"/>
<path d="M0 0 C0.33 1.32 0.66 2.64 1 4 C-2.69418201 5.231394 -5.2056261 4.64432764 -9 4 C-9 3.67 -9 3.34 -9 3 C-4.545 2.505 -4.545 2.505 0 2 C0 1.34 0 0.68 0 0 Z " fill="#767675" transform="translate(285,203)"/>
</svg>
